<svg xmlns="http://www.w3.org/2000/svg" viewBox="0 0 246.1 200" fill="currentColor"><path id="white_background" d="M221,49.8c.1,2.2,.1,4.3,.1,6.5,0,66.7-50.8,143.7-143.7,143.7h0c-27.4,0-54.3-7.8-77.4-22.6,4,.5,8,.7,12,.7,22.7,0,44.8-7.6,62.7-21.7-21.6-.4-40.6-14.5-47.2-35.1,7.6,1.5,15.4,1.2,22.8-.9-23.6-4.8-40.5-25.5-40.5-49.5v-.6c7,3.9,14.9,6.1,22.9,6.3C10.5,61.8,3.7,32.3,17.1,9.2c25.6,31.5,63.5,50.7,104.1,52.8-4.1-17.5,1.5-35.9,14.6-48.3,20.3-19.1,52.3-18.1,71.4,2.2,11.3-2.2,22.1-6.4,32.1-12.3-3.8,11.7-11.7,21.6-22.2,27.9,10-1.2,19.8-3.9,29-8-6.6,10.3-15.2,19.1-25.1,26.3Z"/></svg>